<svg xmlns="http://www.w3.org/2000/svg" viewBox="0 0 180 252" width="180" height="252">
  <rect x="3" y="3" width="174" height="246" rx="16" fill="#173029" stroke="#0e201c" stroke-width="2"/>
  <rect x="14" y="14" width="152" height="224" rx="10" fill="none" stroke="#e6b23c" stroke-width="2" opacity="0.85"/>
  <g stroke="#e6b23c" stroke-width="1" opacity="0.18">
    <line x1="-180" y1="14" x2="44" y2="238"/>
    <line x1="44" y1="14" x2="-180" y2="238"/>
    <line x1="-158" y1="14" x2="66" y2="238"/>
    <line x1="66" y1="14" x2="-158" y2="238"/>
    <line x1="-136" y1="14" x2="88" y2="238"/>
    <line x1="88" y1="14" x2="-136" y2="238"/>
    <line x1="-114" y1="14" x2="110" y2="238"/>
    <line x1="110" y1="14" x2="-114" y2="238"/>
    <line x1="-92" y1="14" x2="132" y2="238"/>
    <line x1="132" y1="14" x2="-92" y2="238"/>
    <line x1="-70" y1="14" x2="154" y2="238"/>
    <line x1="154" y1="14" x2="-70" y2="238"/>
    <line x1="-48" y1="14" x2="176" y2="238"/>
    <line x1="176" y1="14" x2="-48" y2="238"/>
    <line x1="-26" y1="14" x2="198" y2="238"/>
    <line x1="198" y1="14" x2="-26" y2="238"/>
    <line x1="-4" y1="14" x2="220" y2="238"/>
    <line x1="220" y1="14" x2="-4" y2="238"/>
    <line x1="18" y1="14" x2="242" y2="238"/>
    <line x1="242" y1="14" x2="18" y2="238"/>
    <line x1="40" y1="14" x2="264" y2="238"/>
    <line x1="264" y1="14" x2="40" y2="238"/>
    <line x1="62" y1="14" x2="286" y2="238"/>
    <line x1="286" y1="14" x2="62" y2="238"/>
    <line x1="84" y1="14" x2="308" y2="238"/>
    <line x1="308" y1="14" x2="84" y2="238"/>
    <line x1="106" y1="14" x2="330" y2="238"/>
    <line x1="330" y1="14" x2="106" y2="238"/>
    <line x1="128" y1="14" x2="352" y2="238"/>
    <line x1="352" y1="14" x2="128" y2="238"/>
    <line x1="150" y1="14" x2="374" y2="238"/>
    <line x1="374" y1="14" x2="150" y2="238"/>
    <line x1="172" y1="14" x2="396" y2="238"/>
    <line x1="396" y1="14" x2="172" y2="238"/>
    <line x1="194" y1="14" x2="418" y2="238"/>
    <line x1="418" y1="14" x2="194" y2="238"/>
  </g>
  <circle cx="90" cy="126" r="46" fill="#0e201c" opacity="0.55"/>
  <text x="90" y="126" font-size="74" font-family="'Space Grotesk', Georgia, serif" font-weight="700"
        fill="#e6b23c" text-anchor="middle" dominant-baseline="central">7</text>
  <g fill="#e6b23c" font-family="Georgia, serif" font-size="16" opacity="0.9" text-anchor="middle">
    <text x="90" y="58" dominant-baseline="central">♠ ♥ ♦ ♣</text>
    <text x="90" y="196" dominant-baseline="central">♣ ♦ ♥ ♠</text>
  </g>
</svg>
